<!DOCTYPE svg PUBLIC "-//W3C//DTD SVG 20010904//EN" "http://www.w3.org/TR/2001/REC-SVG-20010904/DTD/svg10.dtd">
<svg version="1.0" xmlns="http://www.w3.org/2000/svg" width="128px" height="128px" viewBox="0 0 480 480" preserveAspectRatio="xMidYMid meet">
<g id="layer101" fill="#000000" stroke="none">
 <path d="M131 378 c-22 -24 -41 -49 -41 -56 0 -8 -7 -29 -16 -47 -8 -19 -14 -44 -12 -56 3 -20 6 -18 31 19 15 23 32 42 37 42 10 0 15 -65 11 -125 -2 -16 -11 -45 -21 -63 -11 -17 -15 -32 -10 -32 26 0 70 73 85 139 l7 34 24 -29 c25 -29 27 -60 8 -121 -4 -14 -2 -23 5 -23 6 0 11 7 11 15 0 8 4 15 10 15 11 0 30 64 30 105 l0 30 25 -40 c13 -22 25 -56 25 -75 l1 -35 14 25 c19 33 19 94 -1 131 -8 17 -14 33 -11 35 8 8 37 -33 51 -72 l15 -39 0 59 c1 56 -1 60 -40 100 -23 22 -53 56 -67 74 -22 29 -29 32 -77 32 -49 0 -56 -3 -94 -42z"/>
 </g>

</svg>